<svg xmlns="http://www.w3.org/2000/svg" viewBox="0 0 841.9 595.3">
  <symbol id="icon-close" viewBox="0 0 64 64">
    <path d="M22.6066 21.3934C22.2161 21.0029 21.5829 21.0029 21.1924 21.3934C20.8019 21.7839 20.8019 22.4171 21.1924 22.8076L22.6066 21.3934ZM40.9914 42.6066C41.3819 42.9971 42.0151 42.9971 42.4056 42.6066C42.7961 42.2161 42.7961 41.5829 42.4056 41.1924L40.9914 42.6066ZM21.1924 41.1924C20.8019 41.5829 20.8019 42.2161 21.1924 42.6066C21.5829 42.9971 22.2161 42.9971 22.6066 42.6066L21.1924 41.1924ZM42.4056 22.8076C42.7961 22.4171 42.7961 21.7839 42.4056 21.3934C42.0151 21.0029 41.3819 21.0029 40.9914 21.3934L42.4056 22.8076ZM21.1924 22.8076L40.9914 42.6066L42.4056 41.1924L22.6066 21.3934L21.1924 22.8076ZM22.6066 42.6066L42.4056 22.8076L40.9914 21.3934L21.1924 41.1924L22.6066 42.6066Z" fill="black"/>
  </symbol>
  <symbol id="icon-accept" viewBox="0 0 64 64" fill="none">
    <path fill-rule="evenodd" clip-rule="evenodd" d="M53.7071 19.7072L28.6213 44.793C27.4498 45.9645 25.5503 45.9645 24.3787 44.793L11.2929 31.7072L12.7071 30.293L25.7929 43.3788C26.1834 43.7693 26.8166 43.7693 27.2071 43.3788L52.2929 18.293L53.7071 19.7072Z" fill="black"/>
  </symbol>
  <symbol id="icon-settings" viewBox="0 0 512 512" fill="none">
    <path d="M294 66H218C211.373 66 206 71.3726 206 78V106.319C206 117.01 193.074 122.364 185.515 114.804L165.49 94.7797C160.804 90.0934 153.206 90.0934 148.52 94.7797L94.7797 148.52C90.0934 153.206 90.0934 160.804 94.7797 165.49L114.804 185.515C122.364 193.074 117.01 206 106.319 206H78C71.3726 206 66 211.373 66 218V294C66 300.627 71.3726 306 78 306H106.319C117.01 306 122.364 318.926 114.804 326.485L94.7797 346.51C90.0934 351.196 90.0934 358.794 94.7797 363.48L148.52 417.22C153.206 421.907 160.804 421.907 165.49 417.22L185.515 397.196C193.074 389.636 206 394.99 206 405.681V434C206 440.627 211.373 446 218 446H294C300.627 446 306 440.627 306 434V405.681C306 394.99 318.926 389.636 326.485 397.196L346.51 417.22C351.196 421.907 358.794 421.907 363.48 417.22L417.22 363.48C421.907 358.794 421.907 351.196 417.22 346.51L397.196 326.485C389.636 318.926 394.99 306 405.681 306H434C440.627 306 446 300.627 446 294V218C446 211.373 440.627 206 434 206H405.681C394.99 206 389.636 193.074 397.196 185.515L417.22 165.49C421.907 160.804 421.907 153.206 417.22 148.52L363.48 94.7797C358.794 90.0934 351.196 90.0934 346.51 94.7797L326.485 114.804C318.926 122.364 306 117.01 306 106.319V78C306 71.3726 300.627 66 294 66Z" stroke="black" stroke-width="24"/>
    <circle cx="256.5" cy="255.5" r="102.5" stroke="black" stroke-width="24"/>
  </symbol>
  <symbol id="icon-edit" viewBox="0 0 64 64" fill="none">
    <path d="M32.7071 43.5791L46 20.5551C46.2761 20.0768 46.1123 19.4653 45.634 19.1891L35.2417 13.1891C34.7634 12.913 34.1518 13.0768 33.8756 13.5551L20.5828 36.5791C20.4501 36.8088 20.4142 37.0817 20.4829 37.3379L22.679 45.5341C22.8219 46.0675 23.3703 46.3841 23.9037 46.2412L32.0999 44.045C32.3561 43.9764 32.5745 43.8088 32.7071 43.5791Z" stroke="black" stroke-width="2" stroke-linecap="round"/>
  </symbol>
</svg>